#!OML:ASF Y:\EmotionMaleHayes\Project 1\Capture day 1\Session 1\Male1.ASF
:FULLY-SPECIFIED
:DEGREES
409
root -24.0938 16.9068 -7.22515 171.156 51.961 169.99
lowerback 4.25735 -1.05573 -12.8164
upperback 4.08517 -1.49513 -1.21944
thorax 2.24848 -0.964559 5.92866
lowerneck -24.5861 -2.75759 -1.92136
upperneck 28.4365 -4.36184 4.79494
head 13.9759 -1.21306 1.46702
rclavicle 3.42904e-015 -3.22031e-014
rhumerus 40.8519 14.6113 -33.8569
rradius 35.9272
rwrist -3.32557
rhand -3.16978 -32.3146
rfingers 7.12502
rthumb 22.551 -61.0175
lclavicle 3.42904e-015 -3.22031e-014
lhumerus 48.3365 -18.2885 26.8515
lradius 40.8943
lwrist 7.93183
lhand -10.3394 -22.2193
lfingers 7.12502
lthumb 15.6568 7.16717
rfemur -10.5497 -8.70577 12.8771
rtibia 14.3316
rfoot -10.5104 -7.92185
rtoes 26.2942
lfemur 22.2314 1.88109 -26.1307
ltibia 16.4804
lfoot -12.543 7.71849
ltoes -19.8885
410
root -23.991 16.9387 -7.28086 171.404 51.7723 170.269
lowerback 4.159 -1.11251 -12.6469
upperback 4.0877 -1.56338 -1.03829
thorax 2.31731 -1.00593 6.02468
lowerneck -24.588 -2.83174 -2.13073
upperneck 28.6652 -4.50557 5.18181
head 14.101 -1.22933 1.63758
rclavicle -3.70236e-014 4.53229e-014
rhumerus 40.9536 14.6487 -33.908
rradius 35.7037
rwrist -3.30702
rhand -2.53373 -32.1021
rfingers 7.12502
rthumb 23.1614 -60.7297
lclavicle -3.70236e-014 4.53229e-014
lhumerus 48.3951 -18.3014 26.7876
lradius 40.7604
lwrist 7.5714
lhand -9.82738 -22.5748
lfingers 7.12502
lthumb 16.1499 6.7724
rfemur -10.1567 -9.04893 12.9939
rtibia 14.495
rfoot -10.7342 -7.60605
rtoes 25.0533
lfemur 22.2032 1.89224 -25.6428
ltibia 17.0141
lfoot -11.4178 7.37891
ltoes -20.5627
411
root -23.8839 16.9673 -7.33709 171.782 51.5484 170.598
lowerback 4.01992 -1.19294 -12.47
upperback 3.99473 -1.67062 -0.847091
thorax 2.3146 -1.06061 6.12775
lowerneck -24.4764 -2.88662 -2.19366
upperneck 28.8448 -4.61243 5.36361
head 14.1693 -1.24647 1.70731
rclavicle 2.13694e-014 -1.68967e-014
rhumerus 40.9046 14.7229 -33.9787
rradius 35.6865
rwrist -3.18529
rhand -2.51656 -31.8174
rfingers 7.12502
rthumb 23.1779 -60.4429
lclavicle 2.13694e-014 -1.68967e-014
lhumerus 48.4289 -18.343 26.6623
lradius 40.5506
lwrist 6.96553
lhand -9.3423 -22.7014
lfingers 7.12502
lthumb 16.6169 6.60721
rfemur -9.57994 -8.88112 13.1507
rtibia 14.1811
rfoot -10.9697 -7.72839
rtoes 25.2751
lfemur 22.1012 1.73803 -25.1892
ltibia 17.5424
lfoot -10.4799 7.13641
ltoes -20.1585
412
root -23.7811 16.9887 -7.39799 172.05 51.2402 170.5
lowerback 3.57843 -1.30633 -12.4231
upperback 3.92118 -1.77188 -0.79667
thorax 2.50391 -1.12297 6.14466
lowerneck -24.4719 -3.00336 -2.21333
upperneck 28.9679 -4.81995 5.51003
head 14.2391 -1.30867 1.73386
rclavicle -4.83544e-014 3.73715e-014
rhumerus 40.9509 14.5639 -34.2558
rradius 35.5996
rwrist -2.76499
rhand -2.13472 -31.8461
rfingers 7.12502
rthumb 23.5442 -60.4251
lclavicle -4.83544e-014 3.73715e-014
lhumerus 48.5961 -18.2881 26.3579
lradius 40.4149
lwrist 6.5822
lhand -8.93389 -22.8753
lfingers 7.12502
lthumb 17.0101 6.39996
rfemur -9.33877 -9.04426 12.9355
rtibia 14.0619
rfoot -11.3265 -7.63163
rtoes 26.8845
lfemur 21.7653 1.61259 -25.033
ltibia 18.029
lfoot -9.73024 6.77183
ltoes -17.3035
413
root -23.682 17.0047 -7.4633 172.164 50.8981 170.16
lowerback 3.18614 -1.40723 -12.4577
upperback 3.78577 -1.87007 -0.777826
thorax 2.60214 -1.17734 6.17499
lowerneck -24.4805 -3.14784 -2.27519
upperneck 29.1657 -5.02356 5.57098
head 14.3427 -1.38397 1.73509
rclavicle 4.5969e-014 3.97569e-015
rhumerus 40.6031 14.5442 -34.2975
rradius 35.6078
rwrist -2.47784
rhand -1.53543 -31.7104
rfingers 7.12502
rthumb 24.1189 -60.2144
lclavicle 4.5969e-014 3.97569e-015
lhumerus 48.6211 -18.2539 26.26
lradius 40.4092
lwrist 6.2385
lhand -8.6348 -22.9724
lfingers 7.12502
lthumb 17.298 6.27782
rfemur -9.12475 -9.50357 12.5174
rtibia 13.9574
rfoot -11.7212 -7.32796
rtoes 28.612
lfemur 21.4104 1.57943 -25.0408
ltibia 18.4744
lfoot -8.90595 6.36851
ltoes -15.0806
414
root -23.5861 17.0197 -7.52829 172.106 50.6109 169.8
lowerback 3.03848 -1.43386 -12.4766
upperback 3.68887 -1.89654 -0.782202
thorax 2.58783 -1.18797 6.17832
lowerneck -24.6092 -3.26052 -2.21248
upperneck 29.3516 -5.2254 5.60284
head 14.4627 -1.44723 1.70225
rclavicle 9.2584e-014 5.9039e-014
rhumerus 40.5642 14.5176 -34.2051
rradius 35.5074
rwrist -2.28231
rhand -1.37044 -31.8258
rfingers 7.12502
rthumb 24.2771 -60.3087
lclavicle 9.2584e-014 5.9039e-014
lhumerus 48.7508 -18.1676 26.2008
lradius 40.4087
lwrist 5.94394
lhand -8.34062 -23.0768
lfingers 7.12502
lthumb 17.5811 6.14832
rfemur -8.68858 -9.73903 12.1054
rtibia 13.7343
rfoot -12.0205 -7.19859
rtoes 29.2741
lfemur 21.2091 1.54258 -25.123
ltibia 18.9368
lfoot -8.03644 6.09937
ltoes -14.7636
415
root -23.4922 17.0305 -7.59122 172.181 50.4275 169.679
lowerback 2.93805 -1.50632 -12.3479
upperback 3.55423 -1.99987 -0.690201
thorax 2.51784 -1.2327 6.20301
lowerneck -24.5196 -3.29858 -2.35639
upperneck 29.4854 -5.25656 5.72137
head 14.5139 -1.45325 1.77403
rclavicle 7.34385e-014 -2.88238e-015
rhumerus 40.9129 14.7709 -33.8985
rradius 35.3209
rwrist -2.12819
rhand -1.14185 -31.8911
rfingers 7.12502
rthumb 24.4962 -60.3445
lclavicle 7.34385e-014 -2.88238e-015
lhumerus 48.6303 -18.02 26.2763
lradius 40.3447
lwrist 5.85643
lhand -8.24187 -23.211
lfingers 7.12502
lthumb 17.6761 6.00551
rfemur -8.39511 -10.0734 11.8877
rtibia 13.7894
rfoot -12.3126 -6.98174
rtoes 28.2641
lfemur 21.0561 1.56891 -24.9802
ltibia 19.4544
lfoot -7.26145 5.72381
ltoes -14.8842
416
root -23.3993 17.0355 -7.65336 172.511 50.3437 169.888
lowerback 2.80618 -1.54031 -11.9584
upperback 3.43456 -2.04482 -0.597029
thorax 2.45631 -1.2439 6.08243
lowerneck -24.3738 -3.42797 -2.52759
upperneck 29.5057 -5.39326 5.78633
head 14.5072 -1.52137 1.80487
rclavicle -8.26447e-014 -2.77802e-014
rhumerus 41.1215 14.9083 -33.6745
rradius 34.8927
rwrist -2.02775
rhand -0.869811 -31.7008
rfingers 7.12502
rthumb 24.757 -60.1187
lclavicle -8.26447e-014 -2.77802e-014
lhumerus 48.5849 -17.8836 26.1751
lradius 40.3677
lwrist 6.04558
lhand -8.32398 -23.3933
lfingers 7.12502
lthumb 17.5971 5.8303
rfemur -8.06628 -10.339 11.9599
rtibia 13.6932
rfoot -12.4887 -6.75253
rtoes 27.1692
lfemur 20.8991 1.61842 -24.5531
ltibia 20.0114
lfoot -6.56888 5.31313
ltoes -13.3915
417
root -23.3096 17.0401 -7.7149 172.83 50.3057 170.177
lowerback 2.78446 -1.54087 -11.5062
upperback 3.33011 -2.0581 -0.487994
thorax 2.34051 -1.23576 5.94664
lowerneck -24.1413 -3.52971 -2.57763
upperneck 29.4578 -5.48193 5.68386
head 14.4379 -1.58416 1.75438
rclavicle 2.08149e-014 -7.81472e-015
rhumerus 40.9831 15.236 -33.0727
rradius 35.3815
rwrist -2.51305
rhand -0.843572 -32.1855
rfingers 7.12502
rthumb 24.7821 -60.5999
lclavicle 2.08149e-014 -7.81472e-015
lhumerus 48.5355 -17.7769 26.0313
lradius 40.4868
lwrist 6.43401
lhand -8.41232 -23.5763
lfingers 7.12502
lthumb 17.5121 5.65498
rfemur -7.40776 -10.1573 12.1469
rtibia 13.1097
rfoot -12.6181 -6.74507
rtoes 27.3558
lfemur 20.8254 1.73867 -24.0078
ltibia 20.5083
lfoot -5.71442 5.02878
ltoes -12.608
418
root -23.2245 17.0406 -7.77654 172.702 50.2269 169.923
lowerback 2.82719 -1.5149 -11.4007
upperback 3.25231 -2.03898 -0.442855
thorax 2.22646 -1.21723 5.93849
lowerneck -24.1888 -3.64705 -2.99859
upperneck 29.7884 -5.62128 6.11178
head 14.6366 -1.61162 1.98513
rclavicle -2.0655e-014 2.89729e-014
rhumerus 40.7976 15.2773 -32.7866
rradius 35.7515
rwrist -2.67167
rhand -1.07168 -32.3321
rfingers 7.12502
rthumb 24.5635 -60.7764
lclavicle -2.0655e-014 2.89729e-014
lhumerus 48.5451 -17.6484 26.116
lradius 40.5849
lwrist 6.76724
lhand -8.66457 -23.5295
lfingers 7.12502
lthumb 17.2693 5.7232
rfemur -7.09116 -10.7025 11.8066
rtibia 13.2621
rfoot -12.9083 -6.10656
rtoes 27.752
lfemur 20.7585 2.00207 -23.7838
ltibia 21.001
lfoot -4.72509 4.71859
ltoes -12.6404
419
root -23.1409 17.0369 -7.83723 172.322 50.1595 169.423
lowerback 2.92663 -1.45278 -11.4751
upperback 3.2144 -1.97314 -0.446791
thorax 2.12131 -1.17864 5.98021
lowerneck -24.0965 -3.76147 -3.09014
upperneck 29.6716 -5.74022 6.08156
head 14.5734 -1.68328 1.96199
rclavicle 8.31168e-014 -2.87244e-014
rhumerus 40.6713 15.2443 -32.4824
rradius 35.9577
rwrist -2.84496
rhand -1.57164 -32.0499
rfingers 7.12502
rthumb 24.0842 -60.5584
lclavicle 8.31168e-014 -2.87244e-014
lhumerus 48.6374 -17.5073 26.1617
lradius 40.7029
lwrist 7.01893
lhand -9.42486 -23.2333
lfingers 7.12502
lthumb 16.5374 6.08195
rfemur -6.56605 -10.8096 11.3355
rtibia 13.0673
rfoot -13.1143 -5.98164
rtoes 27.6962
lfemur 20.714 2.34307 -23.6692
ltibia 21.5657
lfoot -3.72633 4.27871
ltoes -11.5633
